<?xml version="1.0" encoding="utf-8"?>
<!-- Generator: Adobe Illustrator 24.3.0, SVG Export Plug-In . SVG Version: 6.00 Build 0)  -->
<svg version="1.1" id="Capa_1" xmlns="http://www.w3.org/2000/svg" xmlns:xlink="http://www.w3.org/1999/xlink" x="0px" y="0px"
	 viewBox="0 0 512 512" style="enable-background:new 0 0 512 512;" xml:space="preserve">
<style type="text/css">
	.st0{fill:#FFFFFF;}
</style>
<g>
	<g id="XMLID_1_">
		<g>
			<path class="st0" d="M512,128v256c0,35.3-28.7,64-64,64H64c-35.3,0-64-28.7-64-64V128c0-35.3,28.7-64,64-64h384
				C483.3,64,512,92.7,512,128z M480,384V128c0-3.3-0.9-6.3-1.9-9.3L342.7,234.8l136.1,155.5C479.2,388.2,480,386.2,480,384z
				 M457.1,414.2L318.4,255.6l-52,44.5c-3,2.6-6.7,3.9-10.4,3.9c-3.7,0-7.4-1.3-10.4-3.9l-52-44.5L54.9,414.2c3,0.9,5.9,1.8,9.1,1.8
				h384C451.2,416,454.2,415.1,457.1,414.2z M256,266.9L454,97.2c-2-0.4-3.9-1.2-6-1.2H64c-2.1,0-4,0.8-6,1.2L256,266.9z
				 M33.3,390.2l136-155.5L33.9,118.7c-0.9,3-1.9,6-1.9,9.3v256C32,386.2,32.8,388.2,33.3,390.2z"/>
		</g>
		<g>
		</g>
	</g>
</g>
</svg>
