<?xml version="1.0" encoding="utf-8"?>
<!-- Generator: Adobe Illustrator 24.3.0, SVG Export Plug-In . SVG Version: 6.00 Build 0)  -->
<svg version="1.1" id="Capa_1" xmlns="http://www.w3.org/2000/svg" xmlns:xlink="http://www.w3.org/1999/xlink" x="0px" y="0px"
	 viewBox="0 0 477.2 477.2" style="enable-background:new 0 0 477.2 477.2;" xml:space="preserve">
<style type="text/css">
	.st0{fill:#FFFFFF;}
</style>
<g>
	<g id="XMLID_1_">
		<g>
			<path class="st0" d="M475,380.3c5.6,16.7-0.1,40.6-12.5,53l-33.9,33.9c-6.1,6-23.8,9.9-24.4,9.9
				c-107.4,0.9-210.9-41.3-286.9-117.3C41.1,283.6-1.2,179.8,0,72c0-0.1,3.9-17.3,9.9-23.3l33.9-34C56.3,2.2,80.2-3.4,96.9,2.2
				l7.2,2.4c16.7,5.6,34.2,24,38.8,41l17.1,62.7c4.6,17-1.6,41.2-14,53.7l-22.7,22.7c22.3,82.4,86.9,147.1,169.4,169.4l22.7-22.7
				c12.4-12.4,36.7-18.7,53.7-14l62.7,17.1c16.9,4.6,35.4,22,41,38.8L475,380.3z"/>
		</g>
		<g>
		</g>
	</g>
</g>
</svg>
