<?xml version="1.0" encoding="utf-8"?>
<!-- Generator: Adobe Illustrator 24.3.0, SVG Export Plug-In . SVG Version: 6.00 Build 0)  -->
<svg version="1.1" id="Outline" xmlns="http://www.w3.org/2000/svg" xmlns:xlink="http://www.w3.org/1999/xlink" x="0px" y="0px"
	 viewBox="0 0 512 512" style="enable-background:new 0 0 512 512;" xml:space="preserve">
<style type="text/css">
	.st0{fill:#FFFFFF;stroke:#000000;stroke-miterlimit:10;}
</style>
<path class="st0" d="M256.1,266c55.1,0,99.8-44.8,99.7-99.9S311,66.3,255.9,66.3c-55.1,0-99.8,44.8-99.7,99.9
	c0,26.5,10.5,51.8,29.3,70.5C204.2,255.5,229.6,266,256.1,266z M201.5,111.6c30.2-30.2,79.1-30.2,109.2,0s30.2,79.1,0,109.2
	c-30.2,30.2-79.1,30.2-109.2,0c-14.5-14.5-22.6-34.1-22.6-54.6C178.8,145.7,187,126,201.5,111.6z"/>
<path class="st0" d="M256.1,281.8c-84.6,0-153.4,68.8-153.4,153.4c0,6.3,5.1,11.3,11.3,11.3h284.2c6.3,0,11.3-5.1,11.3-11.3
	C409.5,350.6,340.7,281.8,256.1,281.8z M125.8,423.9c5.8-66.8,62-119.4,130.3-119.4s124.5,52.6,130.2,119.4H125.8z"/>
</svg>
